<svg width="408" height="409" viewBox="0 0 408 409" fill="none" xmlns="http://www.w3.org/2000/svg">
<rect width="408" height="409" fill="#E5E5E5"/>
<line id="Line 1" x1="8" y1="1" x2="8" y2="408.77" stroke="#EFEFD9" stroke-width="16"/>
<line id="Line 4" y1="8" x2="407.77" y2="8" stroke="#EFEFD9" stroke-width="16"/>
<line id="Line 3" x1="400" y1="1" x2="400" y2="408.77" stroke="#EFEFD9" stroke-width="16"/>
<line id="Line 2" y1="401" x2="407.77" y2="401" stroke="#EFEFD9" stroke-width="16"/>
<g id="JD">
<path d="M49.7656 288.766C70.8594 291.109 83.9375 292.281 89 292.281C94.0625 292.281 98.4688 292 102.219 291.438C120.5 288.438 129.641 276.297 129.641 255.016V120.859H69.4531V100.328H155.938V247.703C155.938 269.734 151.109 286 141.453 296.5C131.891 307 114.734 312.25 89.9844 312.25C81.2656 312.25 67.9062 311.5 49.9062 310L49.7656 288.766ZM251.281 289.469C285.125 289.469 307.625 278.875 318.781 257.688C325.719 244.562 329.188 226.984 329.188 204.953C329.188 177.578 323.609 156.719 312.453 142.375C301.391 128.031 281.094 120.859 251.562 120.859H247.203V289.469H251.281ZM220.906 100.328H255.359C288.734 100.328 313.953 109.375 331.016 127.469C348.172 145.562 356.75 171.578 356.75 205.516C356.75 239.359 348.031 265.234 330.594 283.141C313.156 301.047 287.047 310 252.266 310H220.906V100.328Z" fill="#EFEFD9"/>
<path d="M49.7656 288.766L49.8761 287.772L48.7582 287.648L48.7656 288.772L49.7656 288.766ZM102.219 291.438L102.367 292.427L102.381 292.424L102.219 291.438ZM129.641 120.859H130.641V119.859H129.641V120.859ZM69.4531 120.859H68.4531V121.859H69.4531V120.859ZM69.4531 100.328V99.3281H68.4531V100.328H69.4531ZM155.938 100.328H156.938V99.3281H155.938V100.328ZM141.453 296.5L140.717 295.823L140.714 295.827L141.453 296.5ZM49.9062 310L48.9063 310.007L48.9123 310.921L49.8232 310.997L49.9062 310ZM49.6552 289.76C70.7266 292.101 83.8691 293.281 89 293.281V291.281C84.0059 291.281 70.9922 290.118 49.8761 287.772L49.6552 289.76ZM89 293.281C94.0968 293.281 98.5549 292.998 102.367 292.426L102.07 290.449C98.3826 291.002 94.0282 291.281 89 291.281V293.281ZM102.381 292.424C111.716 290.892 118.826 287.003 123.584 280.684C128.328 274.383 130.641 265.788 130.641 255.016H128.641C128.641 265.524 126.383 273.641 121.986 279.481C117.603 285.302 111.002 288.983 102.057 290.451L102.381 292.424ZM130.641 255.016V120.859H128.641V255.016H130.641ZM129.641 119.859H69.4531V121.859H129.641V119.859ZM70.4531 120.859V100.328H68.4531V120.859H70.4531ZM69.4531 101.328H155.938V99.3281H69.4531V101.328ZM154.938 100.328V247.703H156.938V100.328H154.938ZM154.938 247.703C154.938 269.615 150.132 285.586 140.717 295.823L142.189 297.177C152.087 286.414 156.938 269.853 156.938 247.703H154.938ZM140.714 295.827C131.442 306.008 114.649 311.25 89.9844 311.25V313.25C114.819 313.25 132.34 307.992 142.192 297.173L140.714 295.827ZM89.9844 311.25C81.3093 311.25 67.9843 310.503 49.9893 309.003L49.8232 310.997C67.8282 312.497 81.2219 313.25 89.9844 313.25V311.25ZM50.9062 309.993L50.7656 288.759L48.7656 288.772L48.9063 310.007L50.9062 309.993ZM318.781 257.688L317.897 257.22L317.896 257.222L318.781 257.688ZM312.453 142.375L311.661 142.986L311.664 142.989L312.453 142.375ZM247.203 120.859V119.859H246.203V120.859H247.203ZM247.203 289.469H246.203V290.469H247.203V289.469ZM220.906 100.328V99.3281H219.906V100.328H220.906ZM331.016 127.469L330.288 128.155L330.29 128.157L331.016 127.469ZM220.906 310H219.906V311H220.906V310ZM251.281 290.469C285.322 290.469 308.269 279.799 319.666 258.153L317.896 257.222C306.981 277.951 284.928 288.469 251.281 288.469V290.469ZM319.665 258.155C326.707 244.833 330.188 227.074 330.188 204.953H328.188C328.188 226.894 324.731 244.292 317.897 257.22L319.665 258.155ZM330.188 204.953C330.188 177.463 324.589 156.35 313.242 141.761L311.664 142.989C322.63 157.088 328.188 177.693 328.188 204.953H330.188ZM313.245 141.764C301.9 127.054 281.209 119.859 251.562 119.859V121.859C280.978 121.859 300.882 129.009 311.661 142.986L313.245 141.764ZM251.562 119.859H247.203V121.859H251.562V119.859ZM246.203 120.859V289.469H248.203V120.859H246.203ZM247.203 290.469H251.281V288.469H247.203V290.469ZM220.906 101.328H255.359V99.3281H220.906V101.328ZM255.359 101.328C288.557 101.328 313.473 110.323 330.288 128.155L331.743 126.783C314.434 108.427 288.912 99.3281 255.359 99.3281V101.328ZM330.29 128.157C347.215 146.006 355.75 171.74 355.75 205.516H357.75C357.75 171.416 349.129 145.119 331.741 126.781L330.29 128.157ZM355.75 205.516C355.75 239.193 347.076 264.782 329.877 282.443L331.31 283.838C348.986 265.687 357.75 239.526 357.75 205.516H355.75ZM329.877 282.443C312.692 300.09 286.885 309 252.266 309V311C287.209 311 313.621 302.003 331.31 283.838L329.877 282.443ZM252.266 309H220.906V311H252.266V309ZM221.906 310V100.328H219.906V310H221.906Z" fill="#EFEFD9"/>
</g>
</svg>
